<svg xmlns="http://www.w3.org/2000/svg" xmlns:xlink="http://www.w3.org/1999/xlink" width="2000" zoomAndPan="magnify" viewBox="0 0 1500 1499.999933" height="2000" preserveAspectRatio="xMidYMid meet" version="1.0"><defs><g/><clipPath id="e4c29e7035"><rect x="0" width="1313" y="0" height="396"/></clipPath></defs><rect x="-150" width="1800" fill="#ffffff" y="-149.999993" height="1799.99992" fill-opacity="1"/><rect x="-150" width="1800" fill="#540808" y="-149.999993" height="1799.99992" fill-opacity="1"/><g transform="matrix(1, 0, 0, 1, 187, 706)"><g clip-path="url(#e4c29e7035)"><g fill="#ffffff" fill-opacity="1"><g transform="translate(0.593518, 300.759119)"><g><path d="M 6.96875 0 L 84.625 -212.3125 L 128.296875 -212.3125 L 205.9375 0 L 164.6875 0 L 147.703125 -49.140625 L 64.90625 -49.140625 L 47.625 0 Z M 75.515625 -79.46875 L 137.09375 -79.46875 L 106.15625 -167.71875 Z M 75.515625 -79.46875 "/></g></g></g><g fill="#ffffff" fill-opacity="1"><g transform="translate(213.209103, 300.759119)"><g><path d="M 19.71875 0 L 19.71875 -150.4375 L 54.296875 -150.4375 L 57.9375 -122.234375 C 63.394531 -131.929688 70.820312 -139.660156 80.21875 -145.421875 C 89.625 -151.191406 100.695312 -154.078125 113.4375 -154.078125 L 113.4375 -113.125 L 102.515625 -113.125 C 94.023438 -113.125 86.441406 -111.8125 79.765625 -109.1875 C 73.097656 -106.5625 67.890625 -102.007812 64.140625 -95.53125 C 60.398438 -89.0625 58.53125 -80.066406 58.53125 -68.546875 L 58.53125 0 Z M 19.71875 0 "/></g></g></g><g fill="#ffffff" fill-opacity="1"><g transform="translate(333.317229, 300.759119)"><g><path d="M 60.359375 0 L 5.15625 -150.4375 L 45.796875 -150.4375 L 84.015625 -36.703125 L 122.234375 -150.4375 L 162.875 -150.4375 L 107.359375 0 Z M 60.359375 0 "/></g></g></g><g fill="#ffffff" fill-opacity="1"><g transform="translate(501.043944, 300.759119)"><g><path d="M 40.640625 -173.796875 C 33.566406 -173.796875 27.753906 -175.914062 23.203125 -180.15625 C 18.648438 -184.40625 16.375 -189.765625 16.375 -196.234375 C 16.375 -202.703125 18.648438 -208.007812 23.203125 -212.15625 C 27.753906 -216.300781 33.566406 -218.375 40.640625 -218.375 C 47.710938 -218.375 53.523438 -216.300781 58.078125 -212.15625 C 62.628906 -208.007812 64.90625 -202.703125 64.90625 -196.234375 C 64.90625 -189.765625 62.628906 -184.40625 58.078125 -180.15625 C 53.523438 -175.914062 47.710938 -173.796875 40.640625 -173.796875 Z M 21.234375 0 L 21.234375 -150.4375 L 60.046875 -150.4375 L 60.046875 0 Z M 21.234375 0 "/></g></g></g><g fill="#ffffff" fill-opacity="1"><g transform="translate(582.025871, 300.759119)"><g><path d="M 81.890625 3.640625 C 68.546875 3.640625 56.816406 1.46875 46.703125 -2.875 C 36.597656 -7.226562 28.507812 -13.242188 22.4375 -20.921875 C 16.375 -28.609375 12.738281 -37.507812 11.53125 -47.625 L 50.65625 -47.625 C 51.863281 -41.757812 55.144531 -36.753906 60.5 -32.609375 C 65.863281 -28.460938 72.789062 -26.390625 81.28125 -26.390625 C 89.769531 -26.390625 95.984375 -28.109375 99.921875 -31.546875 C 103.867188 -34.984375 105.84375 -38.925781 105.84375 -43.375 C 105.84375 -49.84375 103.007812 -54.238281 97.34375 -56.5625 C 91.6875 -58.882812 83.804688 -61.160156 73.703125 -63.390625 C 67.234375 -64.804688 60.660156 -66.523438 53.984375 -68.546875 C 47.316406 -70.566406 41.203125 -73.144531 35.640625 -76.28125 C 30.078125 -79.414062 25.578125 -83.457031 22.140625 -88.40625 C 18.703125 -93.363281 16.984375 -99.484375 16.984375 -106.765625 C 16.984375 -120.109375 22.289062 -131.328125 32.90625 -140.421875 C 43.519531 -149.523438 58.429688 -154.078125 77.640625 -154.078125 C 95.429688 -154.078125 109.632812 -149.929688 120.25 -141.640625 C 130.875 -133.347656 137.195312 -121.921875 139.21875 -107.359375 L 102.515625 -107.359375 C 100.285156 -118.484375 91.894531 -124.046875 77.34375 -124.046875 C 70.0625 -124.046875 64.445312 -122.628906 60.5 -119.796875 C 56.5625 -116.972656 54.59375 -113.4375 54.59375 -109.1875 C 54.59375 -104.738281 57.523438 -101.195312 63.390625 -98.5625 C 69.253906 -95.9375 77.039062 -93.515625 86.75 -91.296875 C 97.257812 -88.867188 106.910156 -86.1875 115.703125 -83.25 C 124.503906 -80.320312 131.53125 -75.972656 136.78125 -70.203125 C 142.039062 -64.441406 144.671875 -56.207031 144.671875 -45.5 C 144.867188 -36.195312 142.441406 -27.800781 137.390625 -20.3125 C 132.335938 -12.832031 125.054688 -6.96875 115.546875 -2.71875 C 106.046875 1.519531 94.828125 3.640625 81.890625 3.640625 Z M 81.890625 3.640625 "/></g></g></g><g fill="#ffffff" fill-opacity="1"><g transform="translate(741.260102, 300.759119)"><g><path d="M 19.71875 66.71875 L 19.71875 -150.4375 L 54.296875 -150.4375 L 58.53125 -128.90625 C 63.382812 -135.570312 69.804688 -141.429688 77.796875 -146.484375 C 85.785156 -151.546875 96.148438 -154.078125 108.890625 -154.078125 C 123.035156 -154.078125 135.671875 -150.640625 146.796875 -143.765625 C 157.921875 -136.890625 166.71875 -127.484375 173.1875 -115.546875 C 179.65625 -103.617188 182.890625 -90.078125 182.890625 -74.921875 C 182.890625 -59.753906 179.65625 -46.253906 173.1875 -34.421875 C 166.71875 -22.597656 157.921875 -13.296875 146.796875 -6.515625 C 135.671875 0.253906 123.035156 3.640625 108.890625 3.640625 C 97.566406 3.640625 87.65625 1.519531 79.15625 -2.71875 C 70.664062 -6.96875 63.789062 -12.9375 58.53125 -20.625 L 58.53125 66.71875 Z M 100.6875 -30.328125 C 113.03125 -30.328125 123.242188 -34.472656 131.328125 -42.765625 C 139.410156 -51.054688 143.453125 -61.773438 143.453125 -74.921875 C 143.453125 -88.054688 139.410156 -98.867188 131.328125 -107.359375 C 123.242188 -115.859375 113.03125 -120.109375 100.6875 -120.109375 C 88.15625 -120.109375 77.894531 -115.910156 69.90625 -107.515625 C 61.925781 -99.128906 57.9375 -88.363281 57.9375 -75.21875 C 57.9375 -62.070312 61.925781 -51.300781 69.90625 -42.90625 C 77.894531 -34.519531 88.15625 -30.328125 100.6875 -30.328125 Z M 100.6875 -30.328125 "/></g></g></g><g fill="#ffffff" fill-opacity="1"><g transform="translate(939.013877, 300.759119)"><g><path d="M 19.71875 0 L 19.71875 -150.4375 L 54.296875 -150.4375 L 57.9375 -122.234375 C 63.394531 -131.929688 70.820312 -139.660156 80.21875 -145.421875 C 89.625 -151.191406 100.695312 -154.078125 113.4375 -154.078125 L 113.4375 -113.125 L 102.515625 -113.125 C 94.023438 -113.125 86.441406 -111.8125 79.765625 -109.1875 C 73.097656 -106.5625 67.890625 -102.007812 64.140625 -95.53125 C 60.398438 -89.0625 58.53125 -80.066406 58.53125 -68.546875 L 58.53125 0 Z M 19.71875 0 "/></g></g></g><g fill="#ffffff" fill-opacity="1"><g transform="translate(1056.392314, 300.759119)"><g><path d="M 91.90625 3.640625 C 77.34375 3.640625 64.25 0.304688 52.625 -6.359375 C 41 -13.035156 31.796875 -22.285156 25.015625 -34.109375 C 18.242188 -45.941406 14.859375 -59.644531 14.859375 -75.21875 C 14.859375 -90.789062 18.296875 -104.488281 25.171875 -116.3125 C 32.046875 -128.144531 41.296875 -137.394531 52.921875 -144.0625 C 64.546875 -150.738281 77.640625 -154.078125 92.203125 -154.078125 C 106.554688 -154.078125 119.546875 -150.738281 131.171875 -144.0625 C 142.796875 -137.394531 151.992188 -128.144531 158.765625 -116.3125 C 165.546875 -104.488281 168.9375 -90.789062 168.9375 -75.21875 C 168.9375 -59.644531 165.546875 -45.941406 158.765625 -34.109375 C 151.992188 -22.285156 142.742188 -13.035156 131.015625 -6.359375 C 119.296875 0.304688 106.257812 3.640625 91.90625 3.640625 Z M 91.90625 -30.03125 C 102.007812 -30.03125 110.800781 -33.820312 118.28125 -41.40625 C 125.757812 -48.988281 129.5 -60.257812 129.5 -75.21875 C 129.5 -90.175781 125.757812 -101.445312 118.28125 -109.03125 C 110.800781 -116.613281 102.109375 -120.40625 92.203125 -120.40625 C 81.890625 -120.40625 73.039062 -116.613281 65.65625 -109.03125 C 58.28125 -101.445312 54.59375 -90.175781 54.59375 -75.21875 C 54.59375 -60.257812 58.28125 -48.988281 65.65625 -41.40625 C 73.039062 -33.820312 81.789062 -30.03125 91.90625 -30.03125 Z M 91.90625 -30.03125 "/></g></g></g><g fill="#ffffff" fill-opacity="1"><g transform="translate(1240.194047, 300.759119)"><g><path d="M 36.390625 2.125 C 29.316406 2.125 23.503906 -0.0976562 18.953125 -4.546875 C 14.398438 -8.992188 12.125 -14.351562 12.125 -20.625 C 12.125 -27.09375 14.398438 -32.550781 18.953125 -37 C 23.503906 -41.445312 29.316406 -43.671875 36.390625 -43.671875 C 43.472656 -43.671875 49.285156 -41.445312 53.828125 -37 C 58.378906 -32.550781 60.65625 -27.09375 60.65625 -20.625 C 60.65625 -14.351562 58.378906 -8.992188 53.828125 -4.546875 C 49.285156 -0.0976562 43.472656 2.125 36.390625 2.125 Z M 36.390625 2.125 "/></g></g></g></g></g></svg>